<svg t="1715182451315" class="icon" viewBox="0 0 1024 1024" version="1.1" xmlns="http://www.w3.org/2000/svg" p-id="4692" width="200" height="200"><path d="M832 191h-32V96c0-17.7-14.3-32-32-32H223.5c-52.7 0-95.5 42.8-95.5 95.5V896c0 35.3 28.7 64 64 64h640c35.3 0 64-28.7 64-64V255c0-35.3-28.7-64-64-64z m-608.5-63H736v63H223.5c-17.4 0-31.5-14.1-31.5-31.5s14.1-31.5 31.5-31.5zM832 896H192V249.7c9.9 3.4 20.5 5.3 31.5 5.3H832v641z" p-id="4693"></path><path d="M704 384H320c-17.7 0-32 14.3-32 32s14.3 32 32 32h384c17.7 0 32-14.3 32-32s-14.3-32-32-32zM576 512H320c-17.7 0-32 14.3-32 32s14.3 32 32 32h256c17.7 0 32-14.3 32-32s-14.3-32-32-32z" p-id="4694"></path></svg>