<svg t="1715182535421" class="icon" viewBox="0 0 1024 1024" version="1.1" xmlns="http://www.w3.org/2000/svg" p-id="8662" width="200" height="200"><path d="M904.861538 791.630769c-3.938462 35.446154-25.6 100.430769-78.76923 192.984616H605.538462c-23.630769-41.353846-106.338462-169.353846-224.492308-185.107693-17.723077-1.969231-55.138462-21.661538-55.138462-29.538461 0-9.846154 31.507692-35.446154 39.384616-37.415385 0 0 39.384615-1.969231 72.861538-1.969231 15.753846 0 55.138462 23.630769 74.830769 35.446154l37.415385 39.384616v-433.23077c0-15.753846 11.815385-27.569231 27.569231-29.538461h3.938461c15.753846 1.969231 27.569231 13.784615 27.569231 29.538461V610.461538h39.384615V301.292308c0-15.753846 13.784615-27.569231 27.569231-29.538462h3.938462c15.753846 1.969231 25.6 13.784615 25.6 29.538462V610.461538h39.384615V401.723077c0-15.753846 11.815385-27.569231 27.569231-29.538462h3.938461c15.753846 1.969231 27.569231 13.784615 29.538462 29.538462V610.461538h39.384615v-139.815384c3.938462-13.784615 15.753846-23.630769 29.538462-25.6h3.938461c13.784615 1.969231 25.6 11.815385 27.569231 25.6L904.861538 791.630769zM944.246154 472.615385c-1.969231-41.353846-35.446154-74.830769-78.769231-76.8h-3.938461c-5.907692 1.969231-11.815385 3.938462-15.753847 5.907692-1.969231-41.353846-21.661538-80.738462-61.046153-80.738462h-3.938462c-11.815385 3.938462-23.630769 7.876923-33.476923 13.784616v-23.630769c0-45.292308-23.630769-76.8-64.984615-76.8h-3.938462c-39.384615 0-66.953846 35.446154-70.892308 76.8-7.876923-3.938462-15.753846-3.938462-23.630769-3.938462h-7.876923c-41.353846 0-63.015385 19.692308-63.015385 63.015385v340.676923c-23.630769-11.815385-49.230769-21.661538-74.830769-25.6-29.538462 0-61.046154 5.907692-88.615384 13.784615-21.661538 7.876923-57.107692 31.507692-57.107693 70.892308 0 51.2 82.707692 70.892308 106.338462 74.830769 114.215385 15.753846 179.2 177.230769 179.2 177.230769h279.630769s82.707692-161.476923 88.615385-226.461538C944.246154 793.6 944.246154 472.615385 944.246154 472.615385zM542.523077 72.861538h3.938461V0H304.246154v70.892308h238.276923m43.323077 185.107692h3.938461v-39.384615H255.015385v39.384615h330.830769m92.553846-196.923077C705.969231 59.076923 727.630769 90.584615 727.630769 118.153846v78.769231h39.384616V118.153846c0-55.138462-27.569231-96.492308-88.615385-96.492308H629.169231V59.076923h49.230769M471.630769 393.846154v-39.384616H255.015385v37.415385h3.938461L471.630769 393.846154M117.169231 673.476923V106.338462C119.138462 78.769231 142.769231 57.107692 170.338462 59.076923h59.076923V23.630769h-59.076923C105.353846 23.630769 77.784615 64.984615 77.784615 120.123077v541.538461c0 59.076923 33.476923 88.615385 96.492308 88.615385h72.861539v-35.446154H182.153846c-27.569231-1.969231-64.984615-13.784615-64.984615-41.353846M471.630769 492.307692H255.015385v39.384616h216.615384v-39.384616" p-id="8663"></path></svg>