<svg t="1715182473799" class="icon" viewBox="0 0 1024 1024" version="1.1" xmlns="http://www.w3.org/2000/svg" p-id="5677" width="200" height="200"><path d="M929.173729 692.139572a65.160489 65.160489 0 0 0-41.437675-60.603524V566.375559a65.05749 65.05749 0 0 0-79.819375-63.348504l-33.720735 7.821939-3.987969-3.107976a429.036636 429.036636 0 0 0-139.231908-72.827429 233.761167 233.761167 0 1 0-234.330162 2.226983 402.568843 402.568843 0 0 0-143.064879 70.548447l-4.039968 3.159975-33.667736-7.821939a65.109489 65.109489 0 0 0-79.871373 63.399503v65.161489a65.00549 65.00549 0 0 0 0 121.15405v133.636952a64.798492 64.798492 0 0 0 50.346605 63.399503l310.783563 72.516431a65.05749 65.05749 0 0 0 29.524768 0l310.783563-72.516431a64.798492 64.798492 0 0 0 50.346605-63.399503V752.742097a65.160489 65.160489 0 0 0 41.386676-60.602525zM321.95349 233.837166A189.940511 189.940511 0 1 1 548.256716 420.306704c-4.765963 0-9.479926-0.361997-14.192889-0.361997-16.52387 0-32.632744 0.724994-48.379621 2.019984a189.940511 189.940511 0 0 1-163.730716-188.128525z m212.058337 233.34617c58.582541 0 122.294041 20.719838 179.063596 57.909546l-201.180422 46.617635-200.663427-46.617635c61.535517-38.381699 136.330931-57.909546 222.780253-57.909546zM183.292578 886.379049V566.427558a17.714861 17.714861 0 0 1 20.719837-17.559862l284.210771 66.041482v356.469205l-291.152716-67.699469a17.714861 17.714861 0 0 1-13.777892-17.299865z m657.151846 0a17.714861 17.714861 0 0 1-13.777892 17.299865l-291.152716 67.699469V614.909178l283.123779-65.782484a17.81786 17.81786 0 0 1 21.806829 17.299864v319.952491z" p-id="5678"></path></svg>